<svg xmlns="http://www.w3.org/2000/svg" preserveAspectRatio="xMidYMid" width="28.031" height="30" viewBox="0 0 28.031 30"><defs><style>.cls-1{fill:#000;fill-rule:evenodd}</style></defs><path d="M28.003 20.031c-.648-3.656-3.37-6.051-3.37-6.051.389-3.319-1.037-3.908-1.037-3.908-.3-10.269-9.394-10.09-9.586-10.085-.191-.005-9.287-.184-9.585 10.085 0 0-1.426.589-1.037 3.908 0 0-2.722 2.395-3.37 6.051 0 0-.346 6.177 3.111.756 0 0 .777 2.059 2.203 3.908 0 0-2.549.841-2.333 3.026 0 0-.087 2.436 5.443 2.269 0 0 3.888-.294 5.055-1.891h1.027c1.167 1.597 5.055 1.891 5.055 1.891 5.528.167 5.443-2.269 5.443-2.269.215-2.185-2.333-3.026-2.333-3.026 1.426-1.849 2.203-3.908 2.203-3.908 3.455 5.421 3.111-.756 3.111-.756z" class="cls-1"/></svg>