<svg xmlns="http://www.w3.org/2000/svg" preserveAspectRatio="xMidYMid" width="37.969" height="34.969" viewBox="0 0 37.969 34.969"><defs><style>.cls-1{fill:#000;fill-rule:evenodd}</style></defs><path d="M27.867 22.059s.434 1.232.98 2.931c-3.257-.304-8.107-.838-12.423-1.629-.154-.671 11.848-8.932 11.605-9.413-10.63-1.834-18.49 0-18.49 0l12.872 1.794s-12.154 8.184-12.317 8.961c5.419.973 14.048.891 18.9.746 1.159 3.65 2.682 8.996 1.797 9.415-2.356 1.118-12.276-6.463-12.276-6.463s-9.57 7.096-11.048 6.367c-2.404-1.186.898-12.709.898-12.709s-8.868-7.092-8.376-8.876c.496-1.785 13.514-2.404 13.514-2.404S17.153.439 19.011.012c1.858-.427 5.799 10.105 5.799 10.105s12.306 1.382 13.141 2.484c.836 1.1-10.084 9.458-10.084 9.458zm4.746 3.245s-1.423.079-3.619.145l-.147-.459c2.269.213 3.766.314 3.766.314z" class="cls-1"/></svg>