<svg xmlns="http://www.w3.org/2000/svg" preserveAspectRatio="xMidYMid" width="24" height="30" viewBox="0 0 24 30"><defs><style>.cls-1{fill:#000;fill-rule:evenodd}</style></defs><path d="M21.459 12.096L19.395.438l2.539-.432 2.064 11.658-2.539.432zm-2.59 1.577l-6.798-9.776L14.2 2.473l6.797 9.777-2.128 1.423zm-1.729 2.523L6.748 10.185l1.31-2.177 10.391 6.012-1.309 2.176zm-.88 3.155L4.609 16.279l.669-2.44 11.651 3.072-.669 2.44zm-.36 3.373L3.887 21.64l.236-2.517 12.013 1.085-.236 2.516zm.018 3.331H3.797v-2.703h12.121v2.703zm2.02-8.355h2.02l-.003 11.687s0 .59-.02.59v.01H.632s-.602 0-.602-.01H.01V17.7h2.02v10.321h15.908V17.7z" class="cls-1"/></svg>