<svg xmlns="http://www.w3.org/2000/svg" preserveAspectRatio="xMidYMid" width="36.969" height="29.031" viewBox="0 0 36.969 29.031"><defs><style>.cls-1{fill:#000;fill-rule:evenodd}</style></defs><path d="M32.399 25.866l.985 3.152-3.591-1.894c-1.31.316-2.625.631-3.928.631-6.229 0-11.134-4.099-11.134-9.146 0-5.041 4.905-9.15 11.134-9.15 5.882 0 11.119 4.109 11.119 9.15 0 2.842-1.958 5.359-4.585 7.257zM22.256 14.509c-.652 0-1.309.633-1.309 1.26 0 .638.657 1.262 1.309 1.262.99 0 1.637-.624 1.637-1.262 0-.627-.647-1.26-1.637-1.26zm7.2 0c-.647 0-1.301.633-1.301 1.26 0 .638.654 1.262 1.301 1.262.981 0 1.638-.624 1.638-1.262 0-.627-.657-1.26-1.638-1.26zM13.908 18.76c0 .915.148 1.798.404 2.641-.404.031-.811.05-1.222.05-1.634 0-2.948-.321-4.586-.632l-4.575 2.209 1.309-3.791C1.96 17.031.001 14.187.001 10.726.001 4.728 5.894.004 13.09.004c6.437 0 12.075 3.774 13.208 8.852a12.005 12.005 0 0 0-1.261-.073c-6.219 0-11.129 4.469-11.129 9.977zM8.837 5.365c-.981 0-1.971.624-1.971 1.573 0 .945.99 1.578 1.971 1.578.982 0 1.634-.633 1.634-1.578 0-.949-.652-1.573-1.634-1.573zm9.161 0c-.981 0-1.964.624-1.964 1.573 0 .945.983 1.578 1.964 1.578.986 0 1.638-.633 1.638-1.578 0-.949-.652-1.573-1.638-1.573z" class="cls-1"/></svg>