<svg xmlns="http://www.w3.org/2000/svg" preserveAspectRatio="xMidYMid" width="37" height="30" viewBox="0 0 37 30"><defs><style>.cls-1{fill:#000;fill-rule:evenodd}</style></defs><path d="M36.539 12.806v.006a1.418 1.418 0 0 1-2.698-.875h-.001a6.974 6.974 0 0 0-1.456-6.82 6.965 6.965 0 0 0-6.631-2.147 1.418 1.418 0 0 1-.592-2.775h.001a9.791 9.791 0 0 1 9.327 3.022 9.803 9.803 0 0 1 2.05 9.589zm-9.818-5.3v-.001a1.22 1.22 0 1 1-.509-2.386 4.772 4.772 0 0 1 5.54 6.141 1.222 1.222 0 0 1-1.536.787 1.222 1.222 0 0 1-.785-1.538h-.002a2.332 2.332 0 0 0-2.708-3.003zm.489 2.284c.641.916.579 2.2-.012 3.688-.273.685.085.791.606.948 2.123.658 4.487 2.252 4.487 5.059 0 4.647-6.697 10.5-16.765 10.5-7.679 0-15.529-3.724-15.529-9.85 0-3.202 2.028-6.905 5.519-10.399 4.663-4.664 10.1-6.789 12.145-4.742.902.902.989 2.464.409 4.329-.302.939.881.419.881.421 3.769-1.579 7.057-1.672 8.259.046zm-1.287 9.611c-.397-4.024-5.687-6.796-11.816-6.19-6.127.607-10.774 4.361-10.376 8.386.398 4.026 5.688 6.797 11.816 6.192 6.129-.606 10.773-4.361 10.376-8.388zM11.584 26.06c-2.946-.952-4.193-3.862-2.903-6.484 1.267-2.571 4.562-4.025 7.478-3.266 3.018.78 4.558 3.629 3.325 6.395-1.251 2.831-4.848 4.34-7.9 3.355zm1.664-5.511c-.949-.398-2.175.011-2.761.93-.593.923-.314 2.022.628 2.451.956.437 2.225.022 2.818-.924.582-.956.275-2.048-.685-2.457zm2.339-.97c-.364-.145-.819.03-1.033.389-.207.36-.093.77.272.92.371.153.845-.023 1.059-.39.205-.369.072-.784-.298-.919z" class="cls-1"/></svg>